<?xml version="1.0" encoding="iso-8859-1"?>
<svg xmlns="http://www.w3.org/2000/svg" width="15" height="15" viewBox="0 0 24 16" xmlns:xlink="http://www.w3.org/1999/xlink" version="1.1">
    <path d="m6.822331,12.703237l-5.065186,-5.065688c-0.155528,-0.155026 -0.155528,-0.406881 0,-0.561907c0.155026,-0.155528 0.406881,-0.155528 0.561907,0l4.503781,4.504283l8.906219,-8.907724c0.155528,-0.155528 0.406881,-0.155528 0.561907,0c0.155528,0.155026 0.155528,0.406881 0,0.561907l-9.468627,9.469129z"/>
    <path d="m24.187658,2.676599c-0.161391,-0.161391 -0.42222,-0.161391 -0.58309,0l-9.242504,9.243546l-1.778946,-1.778946l-0.58309,0.58309l2.362037,2.361516l9.825595,-9.826636c0.16087,-0.16035 0.16087,-0.421699 0,-0.58257z"/>
</svg>