<svg xmlns="http://www.w3.org/2000/svg" xmlns:xlink="http://www.w3.org/1999/xlink" viewBox="0 0 16 27.5" version="1.1" x="0px" y="0px">
    <path d="M7.99990102,16.9865842 C5.13878894,16.9815837 1.89812054,14.3054975 1.86802935,11 L0,11 C0.0279135373,15.0090561 3.11087465,18.3120193 7.06608431,18.7678021 L7.06608431,22 L8.9345096,22 L8.9345096,18.7678021 C12.8893233,18.3120193 15.9722844,15.0090561 16,11 L14.1319707,11 C14.1016815,14.3056924 10.8610131,16.9915847 7.99990102,16.9865842 Z"/>
    <path d="M8,14 C10.2091559,14 12,12.301697 12,10.2065188 L12,9.58462782 L11.9996213,9.58444824 L11.9996213,6.87258687 L11.9996213,6.62889468 L11.9996213,6.15839095 L12,6.15857053 L12,3.79312203 C12,1.69812337 10.2091559,0 8,0 C5.7908441,0 4,1.69812337 4,3.79312203 L4,4.4151926 L4.00037873,4.4151926 L4.00037873,7.95241088 L4.00037873,8.51629703 L4.00037873,8.85696328 L4,8.85696328 L4,10.2065188 C4,12.301697 5.7908441,14 8,14"/>
</svg>