<svg xmlns="http://www.w3.org/2000/svg" width="30" xmlns:xlink="http://www.w3.org/1999/xlink" version="1.1" x="0px" y="0px" viewBox="0 0 256 320" enable-background="new 0 0 256 256" xml:space="preserve">
    <path fill="#000000" d="M240.587,68.666c-0.062-0.535-0.123-1.205-0.193-1.971c-0.208-2.247-0.492-5.324-1.047-8.419     c-2.558-14.269-9.913-27.606-20.71-37.555c-11.402-10.507-25.698-16.627-41.342-17.698c-1.771-0.121-3.547-0.183-5.28-0.183     c-19.015,0-35.547,7.204-49.137,21.412c-17.15,17.93-34.549,36.193-51.376,53.855c-6.479,6.8-12.957,13.6-19.438,20.399     c-1.095,1.149-2.192,2.296-3.29,3.443c-3.988,4.168-8.112,8.478-12.081,12.841c-1.861,2.045-3.191,5.918-1.99,9.067     c1.112,2.919,4.502,5.361,7.717,5.56c0.138,0.009,0.276,0.013,0.416,0.013c2.965,0,5.417-1.92,6.953-3.531     c11.614-12.189,23.404-24.596,34.806-36.595c16.522-17.386,33.606-35.365,50.457-52.996     c10.288-10.764,22.613-16.222,36.634-16.222c2.731,0,5.574,0.205,8.45,0.611c24.004,3.385,42.598,24.26,43.251,48.556     c0.409,15.237-4.627,27.879-15.396,38.649c-11.795,11.795-23.593,23.586-35.392,35.378     c-27.128,27.112-55.179,55.146-82.722,82.77c-6.462,6.481-14.072,9.768-22.618,9.768c-1.656,0-3.376-0.123-5.112-0.365     c-13.85-1.931-23.096-9.527-27.482-22.575c-4.364-12.984-1.52-24.648,8.453-34.668c32.603-32.755,65.372-65.599,97.396-97.618     c4.81-4.809,9.824-9.613,14.674-14.26c2.455-2.353,4.91-4.705,7.353-7.07c2.655-2.571,5.699-3.851,9.578-4.029     c4.716-0.22,9.242,1.783,12.364,5.418c2.947,3.431,4.254,7.909,3.586,12.285c-0.538,3.521-2.193,6.563-5.209,9.572     c-20.048,20.005-40.405,40.369-60.093,60.062l-9.292,9.295c-4.789,4.79-3.511,9.651-0.717,12.603     c1.672,1.768,3.848,2.741,6.127,2.741c1.677,0,4.203-0.528,6.716-3.04l15.474-15.463c18.223-18.209,37.067-37.038,55.566-55.595     c9.127-9.155,11.718-23.378,6.448-35.392c-5.343-12.181-17.176-20.052-30.144-20.052c-8.93,0-17.447,3.732-24.631,10.795     C112.723,83.446,76.956,119.42,42.367,154.209l-11.95,12.018c-12.616,12.685-17.433,28.807-13.932,46.623     c4.516,22.979,25.88,40.308,49.695,40.308c3.286,0,6.572-0.338,9.768-1.006c10.774-2.25,20.103-7.529,28.519-16.139     c13.458-13.768,27.324-27.611,40.733-40.997c5.583-5.573,11.166-11.147,16.737-16.732l9.455-9.477     c16.318-16.357,32.636-32.714,48.945-49.079c13.393-13.44,20.028-29.926,20.283-50.401l0.004-0.331L240.587,68.666z"/>
</svg>