<?xml version="1.0" encoding="iso-8859-1"?>
<svg version="1.1" width="15" height="15" xmlns="http://www.w3.org/2000/svg" xmlns:xlink="http://www.w3.org/1999/xlink" x="0px" y="0px" viewBox="0 0 100 125" fill="black" xml:space="preserve">
    <path d="M60.655,80.21l1.281-17.826L88.497,35.82l8.405-0.604c3.367-0.9,4.104-3.656,1.641-6.121L70.907,1.458  c-2.467-2.468-5.218-1.727-6.121,1.639l-0.603,8.409L37.622,38.063l-17.831,1.285c-4.284,1.145-5.224,4.65-2.085,7.79  c0,0,13.729,13.731,14.793,14.795L5.693,88.819L0,100l11.186-5.692l26.885-26.803c1.066,1.062,14.793,14.794,14.793,14.794  C56.001,85.438,59.506,84.494,60.655,80.21z"/>
</svg>