<?xml version="1.0" encoding="iso-8859-1"?>
<svg xmlns="http://www.w3.org/2000/svg" xmlns:xlink="http://www.w3.org/1999/xlink" width="20" version="1.1" x="0px" y="0px" viewBox="0 0 45 45" enable-background="new 0 0 100 100" xml:space="preserve">
    <g>
        <path d="m24.8,0.8c-8.8,0 -15.9,7.1 -15.9,15.9c0,4.2 1.6,8 4.3,10.9l0,0l-12,12.7l1,1l12.8,-12.2l0,0c2.7,2.2 6.2,3.5 9.9,3.5c8.8,0 15.9,-7.1 15.9,-15.9s-7.2,-15.9 -16,-15.9zm0,30c-7.8,0 -14.1,-6.3 -14.1,-14.1s6.3,-14.1 14.1,-14.1s14.1,6.4 14.1,14.1s-6.3,14.1 -14.1,14.1z" stroke-miterlimit="10" stroke-linejoin="round" stroke-linecap="round"/>
    </g>
</svg>